<svg width="40" height="40" fill="none" xmlns="http://www.w3.org/2000/svg"><path d="M5.285 12.4l14.717 8.517 14.616-8.467M20 36.017V20.9" stroke="#0045C5" stroke-width="2" stroke-linecap="round" stroke-linejoin="round"/><path d="M16.551 4.133l-8.9 4.95C5.634 10.2 3.984 13 3.984 15.3v9.417c0 2.3 1.65 5.1 3.667 6.216l8.9 4.95c1.9 1.05 5.017 1.05 6.917 0l8.9-4.95c2.016-1.116 3.666-3.916 3.666-6.216V15.3c0-2.3-1.65-5.1-3.666-6.217l-8.9-4.95c-1.917-1.066-5.017-1.066-6.917 0z" stroke="#0045C5" stroke-width="2" stroke-linecap="round" stroke-linejoin="round"/><path d="M28.332 22.067v-6.1L12.516 6.833" stroke="#0045C5" stroke-width="2" stroke-linecap="round" stroke-linejoin="round"/></svg>