<svg width="40" height="40" fill="none" xmlns="http://www.w3.org/2000/svg"><path d="M30.068 22.583c-.7.684-1.1 1.667-1 2.717.15 1.8 1.8 3.117 3.6 3.117h3.167V30.4c0 3.45-2.817 6.267-6.267 6.267H10.435c-3.45 0-6.267-2.817-6.267-6.267V19.183c0-3.45 2.817-6.266 6.267-6.266h19.133c3.45 0 6.267 2.816 6.267 6.266v2.4h-3.367c-.933 0-1.783.367-2.4 1z" stroke="#0045C5" stroke-width="2" stroke-linecap="round" stroke-linejoin="round"/><path d="M4.168 20.683v-7.616a4.746 4.746 0 013.067-4.45l13.233-5c2.067-.784 4.283.75 4.283 2.966v6.334M37.6 23.284v3.433c0 .917-.734 1.667-1.667 1.7h-3.267c-1.8 0-3.45-1.317-3.6-3.117-.1-1.05.3-2.033 1-2.716a3.32 3.32 0 012.4-1h3.467a1.711 1.711 0 011.666 1.7zM11.668 20h11.667" stroke="#0045C5" stroke-width="2" stroke-linecap="round" stroke-linejoin="round"/></svg>