<svg width="40" height="40" fill="none" xmlns="http://www.w3.org/2000/svg"><path d="M24.999 3.333V20c0 1.833-1.5 3.333-3.334 3.333H3.332V10a6.665 6.665 0 016.667-6.667h15z" stroke="#0045C5" stroke-width="2" stroke-linecap="round" stroke-linejoin="round"/><path d="M36.665 23.333v5c0 2.767-2.233 5-5 5H30C30 31.5 28.5 30 26.666 30a3.343 3.343 0 00-3.333 3.333h-6.667c0-1.833-1.5-3.333-3.333-3.333A3.343 3.343 0 0010 33.333H8.332c-2.767 0-5-2.233-5-5v-5h18.333C23.5 23.333 25 21.833 25 20V8.333h3.066c1.2 0 2.3.65 2.9 1.684L33.815 15h-2.15C30.75 15 30 15.75 30 16.667v5c0 .916.75 1.666 1.666 1.666h5z" stroke="#0045C5" stroke-width="2" stroke-linecap="round" stroke-linejoin="round"/><path d="M13.333 36.667a3.333 3.333 0 100-6.667 3.333 3.333 0 000 6.667zm13.332 0a3.333 3.333 0 100-6.667 3.333 3.333 0 000 6.667zM36.667 20v3.333h-5c-.917 0-1.667-.75-1.667-1.666v-5c0-.917.75-1.667 1.667-1.667h2.15l2.85 5z" stroke="#0045C5" stroke-width="2" stroke-linecap="round" stroke-linejoin="round"/></svg>