<svg width="70" height="70" fill="none" xmlns="http://www.w3.org/2000/svg"><path d="M68.496 38.923c-.83 0-1.504-.673-1.504-1.504v-32.2a1.504 1.504 0 113.008 0v32.2c0 .83-.673 1.504-1.504 1.504z" fill="#0045C5"/><path d="M65.555 37.349h1.439V34.34h-4.48l-17.56-17.37a1.504 1.504 0 00-1.057-.434h-6.102c-.4 0-.785.16-1.067.444l-3.887 3.912a4.06 4.06 0 01-5.736 0l-1.295-1.296 9.237-9.237c.246-.248.56-.49.914-.713 1.104-.696 2.604-1.212 3.696-1.212h27.337V5.427H39.657c-1.358 0-2.992.463-4.414 1.181-1.453-.738-3.082-1.181-4.42-1.181H3.009v3.008h27.814c.473 0 1.037.1 1.62.276l-9.823 9.823a1.504 1.504 0 000 2.127l2.358 2.359c2.755 2.753 7.236 2.753 9.993-.004l3.45-3.471h4.858l20.49 20.267c.556.556.862 1.296.862 2.082.01 2.602-3.19 3.926-5.025 2.082-1.47-1.355-3.48.661-2.127 2.126a2.947 2.947 0 010 4.164 2.947 2.947 0 01-4.163 0 1.504 1.504 0 10-2.127 2.127c1.135 1.086 1.135 3.075 0 4.163-1.087 1.134-3.076 1.134-4.163 0l-.427-.427a1.504 1.504 0 00-2.127 2.126c.553.553.857 1.292.857 2.082 0 .79-.304 1.529-.857 2.081-1.087 1.135-3.076 1.135-4.163 0-.017-.004-2.957-2.903-2.973-2.91l1.703-1.704c3.862-3.887.84-10.477-4.564-10.145.27-3.528-2.843-6.557-6.29-6.29.269-3.489-2.798-6.556-6.287-6.288.332-5.405-6.26-8.424-10.146-4.563L7.93 34.341H3.01v3.008h1.913C.64 41.177 3.447 48.109 9.148 47.83c-.272 3.526 2.862 6.61 6.383 6.28-.214 3.608 3.057 6.643 6.637 6.17-.08 3.179 2.694 6.04 5.95 5.975a5.91 5.91 0 004.207-1.738l2.884-2.884 2.98 2.917a5.91 5.91 0 004.202 1.732c3.194.064 5.992-2.718 5.946-5.912 3.642.522 6.975-2.577 6.706-6.249 3.49.261 6.55-2.797 6.293-6.287 5.72.27 8.5-6.697 4.219-10.486zm-54.68 6.627a2.947 2.947 0 01-4.163 0c-1.135-1.088-1.135-3.076 0-4.163l7.167-7.168c2.875-2.647 6.81 1.287 4.163 4.163l-7.168 7.168zm6.29 6.29c-1.088 1.134-3.077 1.134-4.163 0-1.135-1.088-1.136-3.077 0-4.164l7.167-7.167c1.846-1.832 5.024-.539 5.02 2.081a2.92 2.92 0 01-.857 2.082l-7.168 7.167zm6.388 6.19a2.921 2.921 0 01-2.082.858c-1.59.031-2.97-1.348-2.938-2.939 0-.79.304-1.529.857-2.081l7.069-7.07a2.947 2.947 0 014.163 0c1.135 1.088 1.135 3.077 0 4.164l-7.07 7.069zM34.12 58.47l-3.922 3.922a2.922 2.922 0 01-2.082.857c-2.605.015-3.924-3.182-2.082-5.018l6.715-6.715c2.873-2.646 6.81 1.285 4.163 4.163L34.12 58.47z" fill="#3B3B3B"/><path d="M1.504 38.923C.674 38.923 0 38.25 0 37.419v-32.2a1.504 1.504 0 013.008 0v32.2c0 .83-.674 1.504-1.504 1.504z" fill="#0045C5"/></svg>