<svg width="40" height="40" fill="none" xmlns="http://www.w3.org/2000/svg"><path d="M3.332 36.667h33.333" stroke="#0045C5" stroke-width="2" stroke-miterlimit="10" stroke-linecap="round" stroke-linejoin="round"/><path d="M4.918 36.667l.083-20.05c0-1.017.484-1.984 1.284-2.617L17.95 4.917a3.352 3.352 0 014.1 0l11.667 9.066A3.316 3.316 0 0135 16.617v20.05" stroke="#0045C5" stroke-width="2" stroke-miterlimit="10" stroke-linejoin="round"/><path d="M21.665 28.333h-3.333a2.497 2.497 0 00-2.5 2.5v5.834h8.333v-5.834c0-1.383-1.116-2.5-2.5-2.5zm-5.833-5.416h-3.333c-.917 0-1.667-.75-1.667-1.667v-2.5c0-.917.75-1.667 1.667-1.667h3.333c.917 0 1.667.75 1.667 1.667v2.5c0 .917-.75 1.667-1.667 1.667zm11.668 0h-3.333c-.917 0-1.667-.75-1.667-1.667v-2.5c0-.917.75-1.667 1.667-1.667H27.5c.917 0 1.667.75 1.667 1.667v2.5c0 .917-.75 1.667-1.667 1.667z" stroke="#0045C5" stroke-width="2" stroke-miterlimit="10" stroke-linejoin="round"/><path d="M31.669 11.667l-.05-5h-7.334" stroke="#0045C5" stroke-width="2" stroke-miterlimit="10" stroke-linecap="round" stroke-linejoin="round"/></svg>