<svg width="70" height="70" fill="none" xmlns="http://www.w3.org/2000/svg"><path d="M44.971 28.746a1.504 1.504 0 00-2.11-2.143l-5.108 5.031a1.504 1.504 0 00-.448 1.072v10.72l3.008.001V33.335l4.658-4.589zm-12.732 2.896l-5.031-5.03a1.504 1.504 0 00-2.127 2.126l4.59 4.59v10.1l3.008-.001V32.706c0-.4-.158-.782-.44-1.064z" fill="#0045C5"/><path d="M57.677 22.722C57.677 10.217 47.504.043 35 .043S12.32 10.217 12.32 22.722c0 7.37 3.625 13.97 9.976 18.234v3.637c-2.55 1.946-2.738 6.052-.378 8.234a5.392 5.392 0 00-1.662 4.017c0 3.265 2.829 5.666 6.036 5.391.52 4.343 4.226 7.722 8.707 7.722 4.481 0 8.186-3.379 8.706-7.722 3.208.275 6.037-2.126 6.036-5.391a5.392 5.392 0 00-1.661-4.017c2.36-2.182 2.17-6.289-.378-8.234v-3.638c6.351-4.262 9.975-10.863 9.975-18.233zM45.322 46.637c2.312 1.046 1.634 4.674-.972 4.687H25.647c-3.176-.08-3.145-4.821 0-4.896H44.35c.346 0 .675.076.972.209zM34.999 66.949a5.772 5.772 0 01-5.667-4.714h11.333A5.772 5.772 0 0135 66.95zm11.735-10.105a2.386 2.386 0 01-2.384 2.383H25.647c-3.175-.103-3.172-4.793 0-4.896H44.35c1.364-.004 2.45 1.155 2.384 2.513zm-21.43-13.412v-3.294c0-.519-.268-1-.708-1.276-2.872-1.793-5.138-4.067-6.737-6.76-1.68-2.827-2.53-5.983-2.53-9.38 0-10.847 8.823-19.671 19.67-19.671 10.846 0 19.67 8.824 19.67 19.67 0 3.398-.851 6.554-2.53 9.382-1.599 2.692-3.866 4.966-6.738 6.76-.44.274-.707.756-.707 1.275v3.294a8703.06 8703.06 0 00-19.39 0z" fill="#3B3B3B"/><path d="M62.798 14.246a1.504 1.504 0 01-.632-2.87l3.942-1.823a1.504 1.504 0 011.263 2.73l-3.942 1.823c-.205.095-.42.14-.63.14zm5.698 8.811h-4.352a1.504 1.504 0 010-3.008h4.352a1.504 1.504 0 110 3.008zm-1.82 10.636a1.49 1.49 0 01-.63-.14l-3.943-1.824A1.504 1.504 0 1163.366 29l3.943 1.824a1.504 1.504 0 01-.633 2.87zm-63.413 0a1.504 1.504 0 01-.632-2.87L6.573 29a1.504 1.504 0 011.263 2.73l-3.943 1.823a1.49 1.49 0 01-.63.14zm2.592-10.636H1.504a1.504 1.504 0 110-3.008h4.351a1.504 1.504 0 110 3.008zm1.411-8.811a1.49 1.49 0 01-.63-.14l-3.943-1.823a1.504 1.504 0 111.263-2.73l3.942 1.823a1.504 1.504 0 01-.632 2.87z" fill="#0045C5"/></svg>