<svg width="70" height="70" fill="none" xmlns="http://www.w3.org/2000/svg"><g clip-path="url(#clip0_168_1053)"><path d="M55.986 70c-.209 0-.417-.043-.611-.13a22.587 22.587 0 01-13.402-20.622v-8.55c0-.594.35-1.132.893-1.373 8.705-3.87 17.533-3.87 26.24 0 .542.24.892.78.892 1.373v8.55c0 8.91-5.26 17.004-13.401 20.622-.195.087-.403.13-.611.13zM44.98 41.691v7.557a19.579 19.579 0 0011.006 17.59 19.578 19.578 0 0011.004-17.59V41.69c-7.307-3-14.702-3-22.01 0z" fill="#0045C5"/><path d="M54.515 57.66a1.5 1.5 0 01-1.064-.44l-2.948-2.949a1.504 1.504 0 012.127-2.127l1.885 1.885 4.833-4.834a1.504 1.504 0 012.127 2.127l-5.897 5.897a1.5 1.5 0 01-1.063.44z" fill="#0045C5"/><path d="M40.529 59.913c.924-1.011 1.796-2.194 2.605-3.535-.49-1.47-.833-3-1.012-4.568-2.293 5.145-5.332 8.383-8.536 9.16V49.065h8.388v-3.008h-8.389v-12.47h12.26a58.88 58.88 0 01-.301 4.675 33.524 33.524 0 013.11-.934 63.39 63.39 0 00.2-3.742h12.261a29.348 29.348 0 01-.346 3.223c.982.158 1.964.365 2.945.62.297-1.764.449-3.556.449-5.347 0-8.57-3.337-16.626-9.397-22.685C48.706 3.336 40.65 0 32.081 0 23.51 0 15.455 3.337 9.396 9.397 3.336 15.457 0 23.512 0 32.082c0 8.569 3.337 16.625 9.397 22.684 6.06 6.06 14.115 9.397 22.684 9.396 4.678 0 9.165-.98 13.36-2.909a22.6 22.6 0 01-1.431-2.651 28.827 28.827 0 01-3.481 1.311zm-9.952-13.857h-10.55c-1.016-3.81-1.603-8.047-1.712-12.47h12.262v12.47zm0-15.479H18.316c.11-4.322.693-8.429 1.639-12.09h10.622v12.09zm0-27.386v12.288h-9.73c2.242-6.653 5.763-11.332 9.73-12.288zm-6.984 1.082c-1.34 1.48-2.574 3.326-3.668 5.514-.872 1.744-1.629 3.654-2.265 5.692H8.228c3.685-5.278 9.075-9.282 15.365-11.206zM6.389 18.487h10.443c-.904 3.756-1.425 7.85-1.525 12.09H3.047a28.862 28.862 0 013.342-12.09zM3.046 33.586h12.26c.104 4.384.659 8.612 1.62 12.47H6.573a28.851 28.851 0 01-3.528-12.47zm8.478 19.054a29.455 29.455 0 01-3.046-3.576h9.303a37.848 37.848 0 002.145 5.311c1.098 2.198 2.338 4.05 3.684 5.533-4.516-1.369-8.655-3.837-12.086-7.268zm11.092.39a33.96 33.96 0 01-1.665-3.966h9.627v11.909c-2.939-.705-5.722-3.462-7.962-7.943zm38.5-22.453h-12.26c-.1-4.241-.622-8.335-1.526-12.09h10.465a28.86 28.86 0 013.321 12.09zM52.64 11.523a29.416 29.416 0 013.317 3.956h-9.454c-.636-2.038-1.393-3.948-2.265-5.692-1.099-2.197-2.338-4.05-3.685-5.532 4.517 1.368 8.655 3.836 12.087 7.268zM33.585 3.19c2.938.705 5.721 3.462 7.962 7.942a34.353 34.353 0 011.795 4.347h-9.757V3.189zm0 15.297h10.648c.956 3.71 1.51 7.813 1.614 12.09H33.585v-12.09z" fill="#3B3B3B"/></g><defs><clipPath id="clip0_168_1053"><path fill="#fff" d="M0 0h70v70H0z"/></clipPath></defs></svg>