<svg width="40" height="40" fill="none" xmlns="http://www.w3.org/2000/svg"><path d="M12.1 3.333h15.783c1.083 0 2.05.034 2.917.15 4.616.517 5.866 2.684 5.866 8.617v10.533c0 5.934-1.25 8.1-5.866 8.617-.867.117-1.817.15-2.917.15H12.1c-1.084 0-2.05-.033-2.917-.15-4.617-.517-5.867-2.683-5.867-8.617V12.1c0-5.933 1.25-8.1 5.867-8.617.867-.116 1.833-.15 2.917-.15zm10.533 10.534h6.133m-17.532 9.65h17.55m-17.116 13.15h16.667" stroke="#0045C5" stroke-width="2" stroke-linecap="round" stroke-linejoin="round"/><path d="M11.992 13.833h.015m5.485 0h.015" stroke="#3B3B3B" stroke-width="2" stroke-linecap="round" stroke-linejoin="round"/></svg>