<svg width="40" height="40" fill="none" xmlns="http://www.w3.org/2000/svg"><path d="M28.332 15c0 6.45-5.6 11.667-12.5 11.667l-1.55 1.866-.917 1.1c-.783.934-2.283.734-2.8-.383l-2.233-4.917c-3.033-2.133-5-5.516-5-9.333 0-6.45 5.6-11.667 12.5-11.667 5.033 0 9.383 2.784 11.333 6.784A10.763 10.763 0 0128.332 15z" stroke="#0045C5" stroke-width="2" stroke-linecap="round" stroke-linejoin="round"/><path d="M36.669 21.433c0 3.817-1.967 7.2-5 9.334l-2.234 4.916c-.516 1.117-2.016 1.334-2.8.384L24.17 33.1c-4.034 0-7.634-1.783-9.884-4.567l1.55-1.866c6.9 0 12.5-5.217 12.5-11.667 0-1.75-.416-3.4-1.166-4.883 5.45 1.25 9.5 5.85 9.5 11.316zM11.668 15h8.333" stroke="#0045C5" stroke-width="2" stroke-linecap="round" stroke-linejoin="round"/></svg>