<svg width="40" height="40" fill="none" xmlns="http://www.w3.org/2000/svg"><path d="M30 11.933a1.013 1.013 0 00-.316 0 4.289 4.289 0 01-4.133-4.3 4.29 4.29 0 014.3-4.3 4.3 4.3 0 014.3 4.3 4.315 4.315 0 01-4.15 4.3zm-1.716 12.134c2.284.383 4.8-.017 6.567-1.2 2.35-1.567 2.35-4.134 0-5.7-1.783-1.184-4.333-1.584-6.617-1.184m-18.287-4.05c.1-.016.217-.016.317 0a4.289 4.289 0 004.133-4.3 4.29 4.29 0 00-4.3-4.3 4.3 4.3 0 00-4.3 4.3 4.315 4.315 0 004.15 4.3zm1.718 12.134c-2.283.383-4.8-.017-6.567-1.2-2.35-1.567-2.35-4.134 0-5.7 1.784-1.184 4.334-1.584 6.617-1.184m8.285 8.4a1.013 1.013 0 00-.316 0 4.289 4.289 0 01-4.133-4.3 4.29 4.29 0 014.3-4.3 4.3 4.3 0 014.3 4.3c-.017 2.334-1.85 4.234-4.15 4.3zm-4.85 5.25c-2.35 1.567-2.35 4.134 0 5.7 2.666 1.784 7.033 1.784 9.7 0 2.35-1.566 2.35-4.133 0-5.7-2.65-1.766-7.034-1.766-9.7 0z" stroke="#0045C5" stroke-width="2" stroke-linecap="round" stroke-linejoin="round"/></svg>