<svg width="70" height="70" fill="none" xmlns="http://www.w3.org/2000/svg"><g clip-path="url(#clip0_168_1025)"><path d="M17.355 52.742a3.753 3.753 0 01-.718 5.864c-.158.099-.344.18-.519.266L5.361 64.639c.107-.208 5.798-10.51 5.908-10.748a3.738 3.738 0 013.435-2.246c.96 0 1.92.366 2.65 1.097l-3.972-3.973a6.718 6.718 0 00-3.456 1.846 6.728 6.728 0 00-1.384 2.005L.276 67.64a1.504 1.504 0 002.028 2.05l15.188-8.142a6.727 6.727 0 001.99-1.377 6.718 6.718 0 001.846-3.456l-3.973-3.973z" fill="#0045C5"/><path d="M44.198 34.02c-4.323.09-8.213-3.703-8.126-8.122-.03-7.182 8.802-10.838 13.871-5.745 3.153 3.024 3.153 8.467 0 11.491a8.101 8.101 0 01-5.745 2.376zm0-13.237c-2.723-.057-5.173 2.332-5.118 5.115 0 1.367.532 2.652 1.499 3.62 3.193 3.206 8.755.904 8.737-3.62.054-2.782-2.396-5.172-5.118-5.115z" fill="#3B3B3B"/><path d="M67.91 14.623C69.998 7.13 70 1.758 70 1.533A1.504 1.504 0 0068.43.036c-7.747.338-15.166 2.131-22.05 5.328-8.444 3.997-15.602 9.492-21.351 17.123l-12.356-.601a1.5 1.5 0 00-1.136.439L.44 33.42a1.504 1.504 0 00.745 2.533l13.601 2.941c-2.042 3.803-3.318 6.503-3.335 6.539a1.504 1.504 0 00.297 1.705l5.604 5.604 5.722 5.721a1.505 1.505 0 001.776.26 289.81 289.81 0 006.237-3.483l2.928 13.543c.229 1.145 1.718 1.587 2.534.745l11.095-11.095c.3-.3.459-.712.438-1.136l-.6-12.351c10.855-7.64 17.182-19.08 20.427-30.323zm-2.926-.706a58.337 58.337 0 01-2.089 6.112L49.951 7.086c5.371-2.2 11.062-3.524 16.968-3.95-.147 2.07-.592 5.994-1.935 10.781zM13.19 24.922l9.735.474c-2.1 3.023-4.526 6.975-6.63 10.747L4.518 33.596l8.673-8.673zm4.238 15.42l5.1 5.098-4.112 4.112-3.785-3.785a171.241 171.241 0 012.797-5.426zm6.976 15.198l-3.861-3.861 4.111-4.112 5.012 5.013a327.233 327.233 0 01-5.262 2.96zm20.641 1.238l-8.673 8.673-2.551-11.798c3.377-1.982 7.243-4.34 10.747-6.69l.477 9.815zM50.898 38.3c-3.635 3.636-11.991 8.868-18.54 12.715l-5.576-5.576 7.248-7.247a1.504 1.504 0 00-2.127-2.127l-7.248 7.247-5.719-5.719c3.382-6.036 8.142-13.68 12.858-18.397a55.343 55.343 0 0115.215-10.8L61.6 22.988c-2.326 4.938-5.73 10.34-10.702 15.313z" fill="#3B3B3B"/></g><defs><clipPath id="clip0_168_1025"><path fill="#fff" d="M0 0h70v70H0z"/></clipPath></defs></svg>