<svg width="40" height="40" fill="none" xmlns="http://www.w3.org/2000/svg"><path d="M35.784 31.667V8.333c0-3.333-1.667-5-5-5h-6.667c-3.333 0-5 1.667-5 5v23.334c0 3.333 1.667 5 5 5h6.667c3.333 0 5-1.667 5-5zM19.117 10h8.334m-8.334 20h6.667m-6.667-6.75l8.334.083m-8.334-6.666h5M9.148 3.333c-2.716 0-4.933 2.217-4.933 4.917v21.6c0 .75.317 1.883.7 2.533l1.367 2.267c1.566 2.617 4.15 2.617 5.716 0l1.367-2.267c.383-.65.7-1.783.7-2.533V8.25c0-2.7-2.217-4.917-4.917-4.917zm4.917 8.334h-9.85" stroke="#0045C5" stroke-width="2" stroke-linecap="round"/></svg>